<svg xmlns="http://www.w3.org/2000/svg" viewBox="0 0 400 400" width="400" height="400" role="img" aria-labelledby="t"><title id="t">Insignia de DevsProject: Primer aporte</title><defs></defs>
<path d="M200.00,40.00 C200.00,40.00 313.14,86.86 313.14,86.86 C313.14,86.86 360.00,200.00 360.00,200.00 C360.00,200.00 313.14,313.14 313.14,313.14 C313.14,313.14 200.00,360.00 200.00,360.00 C200.00,360.00 86.86,313.14 86.86,313.14 C86.86,313.14 40.00,200.00 40.00,200.00 C40.00,200.00 86.86,86.86 86.86,86.86 C86.86,86.86 200.00,40.00 200.00,40.00 Z" fill="#111846" stroke="#111846" stroke-width="14.00" stroke-linecap="round" stroke-linejoin="round"/>
<path d="M200.00,49.00 C200.00,49.00 306.77,93.23 306.77,93.23 C306.77,93.23 289.80,110.20 289.80,110.20 C289.80,110.20 200.00,73.00 200.00,73.00 C200.00,73.00 200.00,49.00 200.00,49.00 Z" fill="#6D9BF6"/>
<path d="M306.77,93.23 C306.77,93.23 351.00,200.00 351.00,200.00 C351.00,200.00 327.00,200.00 327.00,200.00 C327.00,200.00 289.80,110.20 289.80,110.20 C289.80,110.20 306.77,93.23 306.77,93.23 Z" fill="#3676F3"/>
<path d="M351.00,200.00 C351.00,200.00 306.77,306.77 306.77,306.77 C306.77,306.77 289.80,289.80 289.80,289.80 C289.80,289.80 327.00,200.00 327.00,200.00 C327.00,200.00 351.00,200.00 351.00,200.00 Z" fill="#0E59EB"/>
<path d="M306.77,306.77 C306.77,306.77 200.00,351.00 200.00,351.00 C200.00,351.00 200.00,327.00 200.00,327.00 C200.00,327.00 289.80,289.80 289.80,289.80 C289.80,289.80 306.77,306.77 306.77,306.77 Z" fill="#0D55E2"/>
<path d="M200.00,351.00 C200.00,351.00 93.23,306.77 93.23,306.77 C93.23,306.77 110.20,289.80 110.20,289.80 C110.20,289.80 200.00,327.00 200.00,327.00 C200.00,327.00 200.00,351.00 200.00,351.00 Z" fill="#1F67F2"/>
<path d="M93.23,306.77 C93.23,306.77 49.00,200.00 49.00,200.00 C49.00,200.00 73.00,200.00 73.00,200.00 C73.00,200.00 110.20,289.80 110.20,289.80 C110.20,289.80 93.23,306.77 93.23,306.77 Z" fill="#568CF5"/>
<path d="M49.00,200.00 C49.00,200.00 93.23,93.23 93.23,93.23 C93.23,93.23 110.20,110.20 110.20,110.20 C110.20,110.20 73.00,200.00 73.00,200.00 C73.00,200.00 49.00,200.00 49.00,200.00 Z" fill="#83AAF8"/>
<path d="M93.23,93.23 C93.23,93.23 200.00,49.00 200.00,49.00 C200.00,49.00 200.00,73.00 200.00,73.00 C200.00,73.00 110.20,110.20 110.20,110.20 C110.20,110.20 93.23,93.23 93.23,93.23 Z" fill="#8CB1F8"/>
<path d="M200.00,200.00 C200.00,200.00 200.00,73.00 200.00,73.00 C200.00,73.00 289.80,110.20 289.80,110.20 C289.80,110.20 200.00,200.00 200.00,200.00 Z" fill="#2B6EF3"/>
<path d="M200.00,200.00 C200.00,200.00 289.80,110.20 289.80,110.20 C289.80,110.20 327.00,200.00 327.00,200.00 C327.00,200.00 200.00,200.00 200.00,200.00 Z" fill="#155FF2"/>
<path d="M200.00,200.00 C200.00,200.00 327.00,200.00 327.00,200.00 C327.00,200.00 289.80,289.80 289.80,289.80 C289.80,289.80 200.00,200.00 200.00,200.00 Z" fill="#0D56E6"/>
<path d="M200.00,200.00 C200.00,200.00 289.80,289.80 289.80,289.80 C289.80,289.80 200.00,327.00 200.00,327.00 C200.00,327.00 200.00,200.00 200.00,200.00 Z" fill="#0D54E2"/>
<path d="M200.00,200.00 C200.00,200.00 200.00,327.00 200.00,327.00 C200.00,327.00 110.20,289.80 110.20,289.80 C110.20,289.80 200.00,200.00 200.00,200.00 Z" fill="#0E59EF"/>
<path d="M200.00,200.00 C200.00,200.00 110.20,289.80 110.20,289.80 C110.20,289.80 73.00,200.00 73.00,200.00 C73.00,200.00 200.00,200.00 200.00,200.00 Z" fill="#2167F2"/>
<path d="M200.00,200.00 C200.00,200.00 73.00,200.00 73.00,200.00 C73.00,200.00 110.20,110.20 110.20,110.20 C110.20,110.20 200.00,200.00 200.00,200.00 Z" fill="#3374F3"/>
<path d="M200.00,200.00 C200.00,200.00 110.20,110.20 110.20,110.20 C110.20,110.20 200.00,73.00 200.00,73.00 C200.00,73.00 200.00,200.00 200.00,200.00 Z" fill="#3776F4"/>
<path d="M200.00,200.00 C200.00,200.00 200.00,73.00 200.00,73.00 M200.00,200.00 C200.00,200.00 289.80,110.20 289.80,110.20 M200.00,200.00 C200.00,200.00 327.00,200.00 327.00,200.00 M200.00,200.00 C200.00,200.00 289.80,289.80 289.80,289.80 M200.00,200.00 C200.00,200.00 200.00,327.00 200.00,327.00 M200.00,200.00 C200.00,200.00 110.20,289.80 110.20,289.80 M200.00,200.00 C200.00,200.00 73.00,200.00 73.00,200.00 M200.00,200.00 C200.00,200.00 110.20,110.20 110.20,110.20" fill="none" stroke="#FFFFFF" stroke-width="1.60" stroke-linecap="round" stroke-linejoin="round" opacity="0.12"/>
<path d="M200.00,49.00 C200.00,49.00 200.00,73.00 200.00,73.00 M306.77,93.23 C306.77,93.23 289.80,110.20 289.80,110.20 M351.00,200.00 C351.00,200.00 327.00,200.00 327.00,200.00 M306.77,306.77 C306.77,306.77 289.80,289.80 289.80,289.80 M200.00,351.00 C200.00,351.00 200.00,327.00 200.00,327.00 M93.23,306.77 C93.23,306.77 110.20,289.80 110.20,289.80 M49.00,200.00 C49.00,200.00 73.00,200.00 73.00,200.00 M93.23,93.23 C93.23,93.23 110.20,110.20 110.20,110.20" fill="none" stroke="#FFFFFF" stroke-width="2.00" stroke-linecap="round" stroke-linejoin="round" opacity="0.35"/>
<path d="M200.00,73.00 C200.00,73.00 289.80,110.20 289.80,110.20 C289.80,110.20 327.00,200.00 327.00,200.00 C327.00,200.00 289.80,289.80 289.80,289.80 C289.80,289.80 200.00,327.00 200.00,327.00 C200.00,327.00 110.20,289.80 110.20,289.80 C110.20,289.80 73.00,200.00 73.00,200.00 C73.00,200.00 110.20,110.20 110.20,110.20 C110.20,110.20 200.00,73.00 200.00,73.00 Z" fill="none" stroke="#FFFFFF" stroke-width="2.60" stroke-linecap="round" stroke-linejoin="round" opacity="0.8"/>
<path d="M57.00,197.00 C57.00,197.00 96.23,96.23 96.23,96.23 C96.23,96.23 198.00,57.00 198.00,57.00" fill="none" stroke="#FFFFFF" stroke-width="4.00" stroke-linecap="round" stroke-linejoin="round" opacity="0.55"/>
<path d="M131.00,119.50 C131.00,119.50 225.30,119.50 225.30,119.50 C225.30,119.50 271.30,165.50 271.30,165.50 C271.30,165.50 271.30,282.80 271.30,282.80 C271.30,292.00 266.70,296.60 257.50,296.60 C257.50,296.60 131.00,296.60 131.00,296.60 C121.80,296.60 117.20,292.00 117.20,282.80 C117.20,282.80 117.20,133.30 117.20,133.30 C117.20,124.10 121.80,119.50 131.00,119.50 Z" fill="#F7F9FF" stroke="#111846" stroke-width="9.20" stroke-linecap="round" stroke-linejoin="round"/>
<path d="M225.30,119.50 C225.30,119.50 271.30,165.50 271.30,165.50 C271.30,165.50 239.10,165.50 239.10,165.50 C229.90,165.50 225.30,160.90 225.30,151.70 C225.30,151.70 225.30,119.50 225.30,119.50 Z" fill="#CFE3FF" stroke="#111846" stroke-width="9.20" stroke-linecap="round" stroke-linejoin="round"/>
<path d="M147.10,174.70 C147.10,174.70 213.80,174.70 213.80,174.70 M147.10,204.60 C147.10,204.60 241.40,204.60 241.40,204.60 M147.10,234.50 C147.10,234.50 216.10,234.50 216.10,234.50 M147.10,264.40 C147.10,264.40 190.80,264.40 190.80,264.40" fill="none" stroke="#2F74FF" stroke-width="9.20" stroke-linecap="round" stroke-linejoin="round"/>
<path d="M266.70,223.00 C288.29,223.00 305.80,240.51 305.80,262.10 C305.80,283.70 288.29,301.20 266.70,301.20 C245.10,301.20 227.60,283.70 227.60,262.10 C227.60,240.51 245.10,223.00 266.70,223.00 Z" fill="#D6F23A" stroke="#111846" stroke-width="9.20" stroke-linecap="round" stroke-linejoin="round"/>
<path d="M266.70,282.80 C266.70,282.80 266.70,241.40 266.70,241.40 M249.45,258.65 C249.45,258.65 266.70,241.40 266.70,241.40 C266.70,241.40 283.95,258.65 283.95,258.65" fill="none" stroke="#111846" stroke-width="9.20" stroke-linecap="round" stroke-linejoin="round"/>
</svg>
